<?xml version="1.0" standalone="no"?>
<!DOCTYPE svg PUBLIC "-//W3C//DTD SVG 20010904//EN"
 "http://www.w3.org/TR/2001/REC-SVG-20010904/DTD/svg10.dtd">
<svg version="1.0" xmlns="http://www.w3.org/2000/svg"
 width="1080.000000pt" height="1080.000000pt" viewBox="0 0 1080.000000 1080.000000"
 preserveAspectRatio="xMidYMid meet">

<g transform="translate(0.000000,1080.000000) scale(0.100000,-0.100000)"
fill="#FFFFFF" stroke="none">
<path d="M200 5400 l0 -1480 1295 0 1295 0 0 30 0 30 -1265 0 -1265 0 0 1420
0 1420 395 0 395 0 0 30 0 30 -425 0 -425 0 0 -1480z"/>
<path d="M7990 6850 l0 -30 1275 0 1275 0 0 -1420 0 -1420 -395 0 -395 0 0
-30 0 -30 425 0 425 0 0 1480 0 1480 -1305 0 -1305 0 0 -30z"/>
<path d="M873 5908 c-17 -8 -22 -18 -21 -42 2 -21 -45 -148 -137 -375 -115
-284 -147 -352 -177 -385 -21 -21 -38 -41 -38 -43 0 -1 30 -3 66 -3 l65 0 -19
25 c-25 31 -19 60 37 195 l40 95 183 3 183 2 49 -117 c51 -126 66 -183 47
-183 -6 0 -11 -4 -11 -10 0 -6 32 -10 75 -10 43 0 75 4 75 10 0 6 -5 10 -10
10 -23 0 -72 104 -220 463 -85 207 -157 377 -160 376 -3 0 -15 -5 -27 -11z
m85 -291 c45 -111 82 -205 82 -209 0 -5 -77 -8 -171 -8 -95 0 -169 4 -167 9
39 105 164 411 168 411 3 0 42 -91 88 -203z"/>
<path d="M1610 5907 c-79 -22 -139 -59 -196 -119 -135 -141 -163 -364 -67
-541 118 -216 471 -264 663 -90 l40 35 0 124 0 124 -61 0 -61 0 31 -29 c30
-29 31 -31 31 -125 0 -91 -1 -97 -29 -128 -16 -19 -51 -45 -78 -58 -40 -21
-62 -25 -133 -25 -73 1 -94 5 -145 30 -149 71 -245 238 -245 426 0 113 28 194
90 262 71 77 129 102 246 102 84 0 96 -3 160 -35 50 -25 78 -48 104 -83 l35
-47 3 61 c3 71 4 70 -88 100 -82 26 -237 34 -300 16z"/>
<path d="M3215 5913 c-83 -18 -156 -70 -181 -130 -19 -44 -18 -127 2 -169 25
-53 76 -88 216 -150 196 -86 248 -133 248 -222 0 -101 -85 -172 -206 -172
-109 0 -210 65 -261 168 l-28 57 -3 -69 c-2 -38 -1 -75 2 -83 8 -19 118 -68
184 -82 124 -26 224 -4 302 66 57 51 74 94 68 170 -8 93 -61 142 -238 217
-174 75 -230 117 -245 187 -25 114 78 208 218 197 106 -9 166 -48 234 -154 10
-16 12 -8 12 47 l1 66 -47 21 c-81 37 -202 52 -278 35z"/>
<path d="M2170 5904 c0 -3 10 -14 23 -24 22 -18 22 -22 27 -322 6 -319 8 -332
56 -396 76 -99 278 -142 410 -87 54 22 108 78 136 139 22 49 23 65 28 349 5
295 5 299 28 317 12 10 22 21 22 24 0 3 -33 6 -72 6 -70 -1 -72 -1 -46 -16 45
-24 50 -62 46 -364 -3 -267 -4 -276 -27 -320 -54 -103 -109 -135 -231 -134
-127 0 -197 41 -251 144 -23 44 -24 52 -27 342 -3 288 -2 298 17 317 12 12 21
23 21 26 0 3 -36 5 -80 5 -44 0 -80 -3 -80 -6z"/>
<path d="M3637 5853 c-5 -66 -1 -76 19 -48 48 68 87 85 197 85 l67 0 0 -352
c-1 -362 -6 -433 -34 -454 -28 -20 -18 -24 64 -24 44 0 80 2 80 5 0 3 -9 14
-20 25 -19 19 -20 33 -20 410 l0 390 63 0 c91 0 131 -14 171 -62 20 -23 37
-40 39 -37 2 2 1 30 -1 62 l-4 57 -308 0 -308 0 -5 -57z"/>
<path d="M4360 5904 c0 -4 7 -12 16 -18 27 -20 33 -91 33 -396 0 -312 -6 -386
-33 -405 -28 -21 -18 -25 64 -25 82 0 92 4 64 25 -27 19 -33 93 -33 405 0 305
6 376 33 396 28 20 18 24 -64 24 -44 0 -80 -3 -80 -6z"/>
<path d="M4654 5895 c11 -8 23 -15 28 -15 23 0 29 -99 26 -427 -3 -344 -3
-345 -25 -363 -13 -10 -23 -21 -23 -24 0 -3 33 -6 73 -6 l72 1 -28 17 c-16 10
-32 32 -38 52 -6 21 -9 160 -7 358 l3 322 283 -380 c156 -209 288 -380 293
-380 5 0 9 160 9 396 0 404 2 422 39 451 13 10 3 12 -56 13 -75 0 -90 -8 -50
-25 42 -19 47 -64 45 -398 l-3 -311 -274 367 -274 367 -56 0 c-51 -1 -54 -2
-37 -15z"/>
<path d="M5760 5905 c0 -5 7 -13 16 -19 27 -20 33 -91 33 -396 0 -312 -6 -386
-33 -405 -9 -7 -16 -16 -16 -20 0 -4 82 -5 183 -3 159 4 189 8 240 27 124 49
179 117 185 233 8 131 -60 209 -212 243 -28 6 -28 6 23 31 129 65 137 225 13
286 -43 21 -62 23 -239 26 -106 2 -193 1 -193 -3z m334 -26 c113 -31 149 -177
62 -256 -44 -41 -90 -53 -198 -53 l-88 0 0 160 0 160 93 0 c50 0 110 -5 131
-11z m40 -340 c88 -24 139 -80 157 -170 17 -86 -2 -160 -54 -213 -53 -53 -97
-66 -227 -73 -93 -5 -107 -3 -120 12 -12 14 -16 63 -18 237 l-4 218 114 0 c62
0 131 -5 152 -11z"/>
<path d="M6480 5904 c0 -4 7 -12 16 -18 27 -20 33 -91 33 -396 0 -312 -6 -386
-33 -405 -9 -7 -16 -15 -16 -19 0 -3 130 -6 289 -6 l290 0 6 43 c4 23 5 58 3
77 l-3 35 -24 -41 c-13 -24 -41 -52 -65 -65 -37 -22 -54 -24 -196 -27 -91 -1
-161 1 -170 7 -12 8 -16 46 -18 211 l-3 200 138 -1 c151 0 202 -11 218 -46 18
-41 25 -24 25 57 0 81 -7 98 -25 58 -16 -36 -67 -47 -217 -47 l-138 -1 0 185
0 185 143 -1 c176 0 216 -12 267 -81 19 -26 35 -46 37 -45 1 2 -1 35 -4 75
l-6 72 -273 0 c-151 0 -274 -3 -274 -6z"/>
<path d="M7184 5895 c11 -8 23 -15 28 -15 23 0 29 -99 26 -427 -3 -344 -3
-345 -25 -363 -13 -10 -23 -21 -23 -24 0 -3 33 -6 73 -6 l72 1 -28 17 c-16 10
-32 32 -38 52 -6 21 -9 160 -7 358 l3 322 283 -380 c156 -209 288 -380 293
-380 5 0 9 160 9 396 0 404 2 422 39 451 13 10 3 12 -56 13 -75 0 -90 -8 -50
-25 42 -19 47 -64 45 -398 l-3 -311 -274 367 -274 367 -56 0 c-51 -1 -54 -2
-37 -15z"/>
<path d="M8030 5904 c0 -4 7 -12 16 -18 27 -20 33 -91 33 -396 0 -312 -6 -386
-33 -405 -28 -21 -18 -25 64 -25 82 0 92 4 64 25 -27 19 -33 93 -33 405 0 305
6 376 33 396 28 20 18 24 -64 24 -44 0 -80 -3 -80 -6z"/>
<path d="M8287 5853 c-5 -66 -1 -76 19 -48 48 68 87 85 197 85 l67 0 0 -352
c-1 -362 -6 -433 -34 -454 -28 -20 -18 -24 64 -24 44 0 80 2 80 5 0 3 -9 14
-20 25 -19 19 -20 33 -20 410 l0 390 63 0 c91 0 131 -14 171 -62 20 -23 37
-40 39 -37 2 2 1 30 -1 62 l-4 57 -308 0 -308 0 -5 -57z"/>
<path d="M9010 5904 c0 -4 7 -12 16 -18 27 -20 33 -91 33 -396 0 -312 -6 -386
-33 -405 -9 -7 -16 -15 -16 -19 0 -3 130 -6 289 -6 l290 0 6 43 c4 23 5 58 3
77 l-3 35 -24 -41 c-13 -24 -41 -52 -65 -65 -37 -22 -54 -24 -196 -27 -91 -1
-161 1 -170 7 -12 8 -16 46 -18 211 l-3 200 138 -1 c151 0 202 -11 218 -46 18
-41 25 -24 25 57 0 81 -7 98 -25 58 -16 -36 -67 -47 -217 -47 l-138 -1 0 185
0 185 143 -1 c176 0 216 -12 267 -81 19 -26 35 -46 37 -45 1 2 -1 35 -4 75
l-6 72 -273 0 c-151 0 -274 -3 -274 -6z"/>
<path d="M9720 5883 c0 -16 -3 -53 -6 -83 l-5 -55 17 30 c55 100 101 117 306
113 l157 -3 -254 -408 c-140 -224 -255 -409 -255 -412 0 -3 128 -5 284 -5 326
0 291 -13 301 110 l6 75 -31 -56 c-22 -39 -44 -63 -73 -80 -39 -22 -54 -24
-224 -27 -101 -2 -183 -2 -183 1 0 3 115 188 255 412 140 223 255 408 255 411
0 2 -124 4 -275 4 l-275 0 0 -27z"/>
<path d="M9997 4963 c-3 -16 -26 -110 -50 -210 -38 -158 -42 -183 -28 -183 13
0 27 41 65 198 27 108 51 203 54 210 2 7 -4 12 -16 12 -13 0 -21 -9 -25 -27z"/>
<path d="M5760 4765 l0 -135 61 0 c111 0 159 42 159 139 0 87 -58 131 -172
131 l-48 0 0 -135z m139 90 c58 -29 67 -128 16 -172 -20 -17 -39 -23 -76 -23
l-49 0 0 105 0 105 40 0 c23 0 54 -7 69 -15z"/>
<path d="M6040 4765 l0 -135 70 0 c56 0 70 3 70 15 0 12 -13 15 -55 15 l-55 0
0 45 0 45 50 0 c38 0 50 4 50 15 0 11 -12 15 -50 15 l-50 0 0 45 0 45 55 0
c42 0 55 3 55 15 0 12 -14 15 -70 15 l-70 0 0 -135z"/>
<path d="M6214 4883 c3 -10 26 -70 50 -133 38 -98 48 -115 66 -115 19 0 29 18
71 130 27 72 49 131 49 133 0 1 -8 2 -18 2 -14 0 -27 -25 -57 -110 -22 -60
-42 -110 -45 -110 -3 0 -23 48 -45 107 -29 78 -45 109 -58 111 -14 3 -18 -1
-13 -15z"/>
<path d="M6490 4765 l0 -135 70 0 c56 0 70 3 70 15 0 12 -13 15 -55 15 l-55 0
0 45 0 45 50 0 c38 0 50 4 50 15 0 11 -12 15 -50 15 l-50 0 0 45 0 45 55 0
c42 0 55 3 55 15 0 12 -14 15 -70 15 l-70 0 0 -135z"/>
<path d="M6690 4765 l0 -135 65 0 c51 0 65 3 65 15 0 11 -12 15 -50 15 l-50 0
0 120 c0 100 -2 120 -15 120 -13 0 -15 -22 -15 -135z"/>
<path d="M6903 4880 c-42 -25 -63 -68 -63 -126 0 -41 5 -51 39 -85 34 -34 44
-39 86 -39 86 0 135 50 135 138 0 104 -109 166 -197 112z m111 -20 c60 -23 73
-133 21 -177 -37 -32 -98 -31 -130 1 -32 32 -40 69 -26 117 17 58 74 83 135
59z"/>
<path d="M7160 4765 c0 -113 2 -135 15 -135 12 0 15 13 15 55 l0 55 40 0 c80
0 125 49 100 109 -14 35 -52 51 -121 51 l-49 0 0 -135z m121 95 c22 -12 26
-59 7 -78 -7 -7 -31 -12 -55 -12 l-43 0 0 50 0 50 36 0 c19 0 44 -5 55 -10z"/>
<path d="M7380 4765 l0 -135 70 0 c56 0 70 3 70 15 0 12 -13 15 -55 15 l-55 0
0 45 0 45 50 0 c38 0 50 4 50 15 0 11 -12 15 -50 15 l-50 0 0 45 0 45 55 0
c42 0 55 3 55 15 0 12 -14 15 -70 15 l-70 0 0 -135z"/>
<path d="M7580 4765 c0 -113 2 -135 15 -135 12 0 15 13 15 55 0 51 2 55 24 55
19 0 31 -12 55 -55 22 -39 37 -55 52 -55 13 0 18 4 13 13 -4 6 -18 29 -31 50
l-24 38 31 29 c32 30 37 54 19 94 -14 30 -55 46 -120 46 l-49 0 0 -135z m121
95 c22 -12 26 -59 7 -78 -7 -7 -31 -12 -55 -12 l-43 0 0 50 0 50 36 0 c19 0
44 -5 55 -10z"/>
<path d="M7910 4765 c0 -113 2 -135 15 -135 12 0 15 13 15 60 l0 60 50 0 c38
0 50 4 50 15 0 11 -12 15 -50 15 l-50 0 0 45 0 45 60 0 c47 0 60 3 60 15 0 12
-15 15 -75 15 l-75 0 0 -135z"/>
<path d="M8100 4794 c0 -103 1 -106 29 -135 23 -23 38 -29 71 -29 33 0 48 6
71 29 28 29 29 32 29 135 0 85 -3 106 -14 106 -11 0 -15 -23 -18 -106 -3 -120
-14 -137 -78 -132 -48 4 -60 32 -60 146 0 75 -3 92 -15 92 -12 0 -15 -18 -15
-106z"/>
<path d="M8360 4765 l0 -135 65 0 c51 0 65 3 65 15 0 11 -12 15 -50 15 l-50 0
0 120 c0 100 -2 120 -15 120 -13 0 -15 -22 -15 -135z"/>
<path d="M8530 4765 l0 -135 65 0 c51 0 65 3 65 15 0 11 -12 15 -50 15 l-50 0
0 120 c0 100 -2 120 -15 120 -13 0 -15 -22 -15 -135z"/>
<path d="M8719 4882 c-27 -23 -30 -75 -5 -100 9 -9 37 -24 63 -32 54 -17 74
-41 57 -67 -17 -27 -80 -29 -96 -4 -13 22 -48 29 -48 11 0 -6 11 -22 25 -35
52 -53 155 -19 155 50 0 38 -13 51 -76 73 -55 20 -74 43 -58 70 17 26 70 28
86 3 13 -22 48 -29 48 -11 0 6 -11 22 -25 35 -30 31 -92 34 -126 7z"/>
<path d="M8900 4885 c0 -11 11 -15 40 -15 l40 0 0 -120 c0 -100 3 -120 15
-120 13 0 15 20 15 120 l0 120 35 0 c24 0 35 5 35 15 0 12 -17 15 -90 15 -73
0 -90 -3 -90 -15z"/>
<path d="M9439 4877 c-43 -29 -59 -60 -59 -120 0 -40 5 -53 33 -83 28 -31 42
-37 83 -41 35 -4 60 0 82 11 27 14 52 43 52 60 0 15 -32 4 -54 -19 -34 -34
-97 -35 -131 -1 -84 84 6 228 108 175 12 -7 26 -18 30 -25 9 -15 47 -19 47 -6
0 14 -41 53 -67 63 -41 15 -88 10 -124 -14z"/>
<path d="M9680 4765 c0 -113 2 -135 15 -135 12 0 15 13 15 55 0 30 4 55 9 55
5 0 31 -25 56 -55 35 -40 54 -55 73 -55 23 0 20 5 -37 65 l-63 65 41 49 c22
26 47 54 56 61 19 16 19 30 0 30 -9 0 -42 -28 -75 -62 l-59 -63 -1 63 c0 48
-3 62 -15 62 -13 0 -15 -22 -15 -135z"/>
<path d="M9200 4868 c-5 -13 -27 -71 -49 -130 -34 -95 -37 -108 -21 -108 10 0
23 13 30 30 12 28 15 30 70 30 55 0 59 -1 69 -30 10 -29 42 -43 40 -17 0 6
-19 64 -43 127 -35 94 -47 116 -64 118 -15 2 -25 -4 -32 -20z m56 -88 l21 -60
-48 0 -48 0 21 60 c12 33 24 60 27 60 4 0 15 -27 27 -60z"/>
<path d="M5600 4815 l-44 -45 44 -45 c24 -25 52 -45 62 -45 25 0 23 4 -24 49
l-43 40 45 45 c36 38 41 46 24 46 -11 0 -40 -20 -64 -45z"/>
<path d="M10150 4815 l44 -45 -44 -45 c-35 -36 -40 -45 -25 -45 11 0 43 21 70
45 l50 45 -50 45 c-27 25 -58 45 -69 45 -17 0 -12 -8 24 -45z"/>
<path d="M5392 3950 c0 -19 2 -27 5 -17 2 9 2 25 0 35 -3 9 -5 1 -5 -18z"/>
</g>
</svg>
