<?xml version="1.0" standalone="no"?>
<!DOCTYPE svg PUBLIC "-//W3C//DTD SVG 20010904//EN"
 "http://www.w3.org/TR/2001/REC-SVG-20010904/DTD/svg10.dtd">
<svg version="1.0" xmlns="http://www.w3.org/2000/svg"
 width="1080.000000pt" height="1080.000000pt" viewBox="0 0 1080.000000 1080.000000"
 preserveAspectRatio="xMidYMid meet">

<g transform="translate(0.000000,1080.000000) scale(0.100000,-0.100000)"
fill="#FFFFFF" stroke="none">
<path d="M800 5490 l0 -4600 1150 0 1150 0 0 30 0 30 -1120 0 -1120 0 0 4540
0 4540 355 0 355 0 0 30 0 30 -385 0 -385 0 0 -4600z"/>
<path d="M7700 10060 l0 -30 1120 0 1120 0 0 -4540 0 -4540 -355 0 -355 0 0
-30 0 -30 385 0 385 0 0 4600 0 4600 -1150 0 -1150 0 0 -30z"/>
<path d="M3270 7615 c-78 -34 -124 -59 -122 -67 1 -7 11 -33 21 -58 28 -66 34
-112 21 -159 -16 -61 -1073 -2668 -1131 -2790 -98 -208 -196 -327 -305 -372
-47 -20 -54 -26 -54 -51 l0 -28 275 0 275 0 0 29 c0 24 -5 31 -29 36 -40 9
-89 60 -102 109 -29 106 3 215 220 751 l169 420 758 0 757 0 164 -395 c247
-595 275 -672 281 -758 4 -65 2 -75 -18 -97 -12 -13 -33 -26 -46 -29 -19 -5
-24 -13 -24 -36 l0 -30 315 0 315 0 0 29 c0 25 -8 34 -54 59 -29 17 -70 50
-90 74 -47 54 -127 186 -171 280 -18 40 -315 757 -660 1593 -345 836 -630
1525 -633 1532 -5 8 -45 -5 -132 -42z m356 -1222 l362 -878 -358 -3 c-197 -1
-523 -1 -723 0 l-364 3 168 420 c442 1100 542 1345 547 1340 3 -3 168 -400
368 -882z"/>
<path d="M6390 7613 c0 -24 7 -31 45 -46 25 -11 56 -32 70 -49 32 -38 62 -140
75 -253 13 -122 13 -2678 0 -2800 -13 -113 -43 -215 -75 -253 -14 -17 -45 -38
-70 -49 -38 -15 -45 -22 -45 -45 l0 -28 549 0 c676 0 839 11 1086 75 104 27
294 102 374 147 340 190 528 482 548 850 23 416 -167 737 -540 913 -140 66
-254 95 -512 131 l-50 7 40 9 c213 46 406 155 518 293 55 69 129 214 149 295
21 89 16 272 -11 350 -72 206 -243 349 -503 420 -192 52 -217 53 -955 57
l-693 4 0 -28z m1267 -59 c260 -38 440 -156 533 -350 43 -88 60 -173 60 -300
0 -392 -242 -634 -685 -684 -49 -5 -224 -10 -387 -10 l-298 0 0 680 0 680 336
0 c253 0 362 -4 441 -16z m105 -1425 c288 -31 533 -150 674 -327 60 -75 137
-236 164 -342 31 -120 39 -396 16 -525 -42 -226 -111 -363 -250 -492 -105 -99
-231 -166 -409 -217 -158 -46 -270 -58 -592 -62 -342 -5 -373 0 -427 66 -57
72 -58 88 -58 1043 l0 867 390 0 c216 0 435 -5 492 -11z"/>
<path d="M8270 3736 c0 -2 -61 -252 -135 -555 -74 -303 -135 -555 -135 -561 0
-5 20 -10 45 -10 25 0 45 2 45 5 0 3 61 252 135 555 74 302 135 554 135 560 0
5 -20 10 -45 10 -25 0 -45 -2 -45 -4z"/>
<path d="M7592 3274 c-68 -64 -122 -119 -120 -123 2 -3 55 -57 119 -118 l117
-113 58 1 59 0 -117 113 c-65 61 -118 116 -117 122 1 5 52 56 114 114 63 58
114 108 114 113 1 4 -23 7 -51 7 l-53 0 -123 -116z"/>
<path d="M8649 3272 l124 -118 -123 -117 -123 -117 59 0 59 0 123 118 124 117
-125 118 -125 117 -59 0 -58 -1 124 -117z"/>
</g>
</svg>
